#!OML:ASF E:\Style4\Style4.ASF
:FULLY-SPECIFIED
:DEGREES
3365
root 0.587412 17.1713 -0.972135 -0.427615 -19.294 4.9419
lowerback 16.3256 2.00631 -3.10848
upperback 10.241 2.08776 -1.02436
thorax 1.69254 0.883134 0.369708
lowerneck 5.84374 -4.87855 -4.92373
upperneck -3.98475 -6.56276 7.03671
head -1.8825 -3.39823 3.36855
rclavicle 1.09332e-014 -7.35503e-015
rhumerus -6.67663 15.4852 -84.5039
rradius 120.632
rwrist 20.7962
rhand 30.3155 -4.80887
rfingers 7.12502
rthumb 53.9904 -23.6534
lclavicle 1.09332e-014 -7.35503e-015
lhumerus -5.23968 -26.0432 89.1559
lradius 126.066
lwrist -13.2991
lhand 22.9512 40.2592
lfingers 7.12502
lthumb 47.2738 62.8038
rfemur -27.7408 7.79035 11.9133
rtibia 48.1162
rfoot -19.9485 -10.0767
rtoes -20.0382
lfemur -19.2664 12.6147 -24.808
ltibia 44.2731
lfoot -26.751 13.9677
ltoes -13.9001
3366
root 0.580361 17.166 -0.972827 -0.55626 -19.0461 4.99505
lowerback 16.4193 2.04971 -3.11072
upperback 10.2466 2.14143 -1.02588
thorax 1.64868 0.911109 0.35881
lowerneck 5.91183 -4.98908 -4.98056
upperneck -3.96517 -6.712 7.17221
head -1.87255 -3.47655 3.4304
rclavicle -5.62561e-014 1.2921e-014
rhumerus -6.42084 15.4376 -84.5063
rradius 120.643
rwrist 20.7951
rhand 30.3875 -4.88891
rfingers 7.12502
rthumb 54.055 -23.6897
lclavicle -5.62561e-014 1.2921e-014
lhumerus -4.99932 -25.978 88.994
lradius 126.086
lwrist -13.3588
lhand 22.7795 40.4012
lfingers 7.12502
lthumb 47.1151 63.0165
rfemur -27.6089 7.64916 11.8985
rtibia 48.2414
rfoot -19.9842 -10.2511
rtoes -20.3789
lfemur -19.1723 12.4856 -24.8143
ltibia 44.3331
lfoot -26.7181 13.8809
ltoes -14.0593
3367
root 0.572612 17.159 -0.977947 -0.61036 -18.731 5.01275
lowerback 16.4164 2.07222 -3.12824
upperback 10.2861 2.17165 -0.984053
thorax 1.6899 0.924111 0.408742
lowerneck 6.01618 -5.09142 -5.00254
upperneck -4.05414 -6.84813 7.23099
head -1.90906 -3.54771 3.46479
rclavicle 4.63168e-014 -9.93923e-015
rhumerus -6.02494 15.4128 -84.4773
rradius 120.588
rwrist 20.8707
rhand 30.4965 -5.05522
rfingers 7.12502
rthumb 54.1528 -23.7894
lclavicle 4.63168e-014 -9.93923e-015
lhumerus -4.66885 -25.8697 88.8706
lradius 126.074
lwrist -13.4693
lhand 22.7069 40.4507
lfingers 7.12502
lthumb 47.0479 63.0958
rfemur -27.541 7.48514 11.9143
rtibia 48.3552
rfoot -20.066 -10.2955
rtoes -19.7128
lfemur -19.1793 12.3186 -24.787
ltibia 44.4111
lfoot -26.7656 13.6826
ltoes -13.5532
3368
root 0.563672 17.1516 -0.980517 -0.703199 -18.4659 4.97568
lowerback 16.46 2.07675 -3.11905
upperback 10.3347 2.17916 -0.946869
thorax 1.71838 0.926845 0.440961
lowerneck 6.08086 -5.14574 -4.89066
upperneck -4.12468 -6.91446 7.15473
head -1.94543 -3.58161 3.42466
rclavicle -2.46493e-014 5.84427e-014
rhumerus -5.68782 15.4836 -84.4965
rradius 120.538
rwrist 20.9839
rhand 30.5306 -5.06226
rfingers 7.12502
rthumb 54.1833 -23.7756
lclavicle -2.46493e-014 5.84427e-014
lhumerus -4.40775 -25.6706 88.7695
lradius 125.965
lwrist -13.7162
lhand 22.62 40.2391
lfingers 7.12502
lthumb 46.9676 62.9196
rfemur -27.3983 7.38561 12.0038
rtibia 48.4575
rfoot -20.1402 -10.3864
rtoes -19.2499
lfemur -19.105 12.2445 -24.684
ltibia 44.4855
lfoot -26.8127 13.419
ltoes -13.1965
3369
root 0.558022 17.1466 -0.980169 -0.860961 -18.223 4.97283
lowerback 16.5701 2.06724 -3.12192
upperback 10.3875 2.16327 -0.918608
thorax 1.71779 0.917648 0.472144
lowerneck 6.07766 -5.18898 -4.82422
upperneck -4.12932 -6.9708 7.06122
head -1.94749 -3.60799 3.38152
rclavicle -3.83654e-014 2.8625e-014
rhumerus -5.43848 15.5943 -84.5228
rradius 120.521
rwrist 21.0151
rhand 30.4871 -5.02678
rfingers 7.12502
rthumb 54.1444 -23.7667
lclavicle -3.83654e-014 2.8625e-014
lhumerus -4.21843 -25.3755 88.7282
lradius 125.834
lwrist -13.9691
lhand 22.6118 40.0304
lfingers 7.12502
lthumb 46.96 62.7143
rfemur -27.1807 7.27773 12.04
rtibia 48.5458
rfoot -20.2538 -10.5046
rtoes -19.125
lfemur -18.9531 12.2123 -24.6296
ltibia 44.5525
lfoot -26.7305 13.3112
ltoes -13.4872
3370
root 0.55438 17.1418 -0.981626 -0.955907 -17.924 5.02203
lowerback 16.6163 2.05532 -3.19698
upperback 10.4349 2.13848 -0.85387
thorax 1.74143 0.899466 0.585274
lowerneck 6.06006 -5.25315 -4.87787
upperneck -4.16136 -7.062 7.00651
head -1.94866 -3.65088 3.37469
rclavicle -1.76918e-014 8.74653e-015
rhumerus -5.15561 15.6815 -84.4517
rradius 120.513
rwrist 20.9288
rhand 30.4822 -5.02786
rfingers 7.12502
rthumb 54.14 -23.7708
lclavicle -1.76918e-014 8.74653e-015
lhumerus -4.01219 -25.1587 88.7505
lradius 125.813
lwrist -14.0761
lhand 22.4406 40.1143
lfingers 7.12502
lthumb 46.8015 62.8675
rfemur -27.045 7.09468 12.0067
rtibia 48.6185
rfoot -20.313 -10.6539
rtoes -19.165
lfemur -18.9005 12.0702 -24.6545
ltibia 44.6047
lfoot -26.6612 13.2616
ltoes -13.8102
3371
root 0.549356 17.1384 -0.982316 -1.01621 -17.6765 5.04369
lowerback 16.6179 2.07602 -3.23779
upperback 10.4723 2.16261 -0.795036
thorax 1.77686 0.907553 0.666852
lowerneck 6.15202 -5.32927 -4.94805
upperneck -4.25104 -7.16858 7.02597
head -1.985 -3.70507 3.4037
rclavicle -3.51849e-014 5.00937e-014
rhumerus -4.93043 15.6566 -84.3974
rradius 120.526
rwrist 20.8393
rhand 30.4951 -5.0816
rfingers 7.12502
rthumb 54.1515 -23.8166
lclavicle -3.51849e-014 5.00937e-014
lhumerus -3.85691 -25.085 88.7935
lradius 125.842
lwrist -14.1803
lhand 22.1297 40.2334
lfingers 7.12502
lthumb 46.5136 63.111
rfemur -26.9542 6.97206 12.0121
rtibia 48.6835
rfoot -20.2751 -10.924
rtoes -20.3538
lfemur -18.876 11.9373 -24.6503
ltibia 44.6448
lfoot -26.5803 13.2305
ltoes -14.1707
3372
root 0.543815 17.1368 -0.980545 -1.07414 -17.4408 5.04116
lowerback 16.6142 2.07692 -3.20285
upperback 10.5006 2.1707 -0.777945
thorax 1.80945 0.912693 0.664578
lowerneck 6.20968 -5.3943 -4.94556
upperneck -4.26274 -7.25753 7.00957
head -1.99398 -3.74978 3.40244
rclavicle 4.77083e-014 -2.06736e-014
rhumerus -4.77195 15.6402 -84.4377
rradius 120.54
rwrist 20.8284
rhand 30.333 -5.06395
rfingers 7.12502
rthumb 54.0061 -23.8979
lclavicle 4.77083e-014 -2.06736e-014
lhumerus -3.73329 -24.9881 88.7945
lradius 125.82
lwrist -14.3806
lhand 21.9657 40.1062
lfingers 7.12502
lthumb 46.3617 63.0486
rfemur -26.8474 6.88333 12.0383
rtibia 48.7469
rfoot -20.2412 -11.2112
rtoes -21.1946
lfemur -18.8363 11.8284 -24.6266
ltibia 44.6851
lfoot -26.5163 13.1973
ltoes -14.411
